# AST/ASF file generated using VICON BodyLanguage
# -----------------------------------------------
:version 1.10
:name VICON
:units
  mass 1.0
  length 0.45
  angle deg
:documentation
   .ast/.asf automatically generated from VICON data using
   VICON BodyBuilder and BodyLanguage model FoxedUp or BRILLIANT.MOD
:root
   order TX TY TZ RX RY RZ
   axis XYZ
   position 0 0 0  
   orientation 0 0 0 
:bonedata
  begin
     id 1 
     name lhipjoint
     direction 0.440178 -0.822639 0.359871 
     length 2.53113 
     axis 0 0 0  XYZ
  end
  begin
     id 2 
     name lfemur
     direction 0.34202 -0.939693 0  
     length 7.88132  
     axis 0 0 20  XYZ
    dof rx ry rz
    limits (-160.0 20.0)
           (-70.0 70.0)
           (-60.0 70.0)
  end
  begin
     id 3 
     name ltibia
     direction 0.34202 -0.939693 0   
     length 8.43783   
     axis 0 0 20   XYZ
    dof rx
    limits (-10.0 170.0)
  end
  begin
     id 4 
     name lfoot
     direction 0.0886351 -0.243523 0.965837   
     length 2.63414   
     axis -90 7.62852e-016 20   XYZ
    dof rx rz
    limits (-45.0 90.0)
           (-70.0 20.0)
  end
  begin
     id 5 
     name ltoes
     direction 1.53703e-011 -4.21717e-011 1   
     length 1.31427   
     axis -90 7.62852e-016 20   XYZ
    dof rx
    limits (-90.0 20.0)
  end
  begin
     id 6 
     name rhipjoint
     direction -0.399779 -0.839773 0.367367   
     length 2.47948  
     axis 0 0 0  XYZ 
  end
  begin
     id 7 
     name rfemur
     direction -0.34202 -0.939693 0   
     length 7.74806   
     axis 0 0 -20   XYZ
    dof rx ry rz
    limits (-160.0 20.0)
           (-70.0 70.0)
           (-70.0 60.0)
  end
  begin
     id 8 
     name rtibia
     direction -0.34202 -0.939693 0   
     length 8.74432   
     axis 0 0 -20   XYZ
    dof rx
    limits (-10.0 170.0)
 end
 begin
     id 9 
     name rfoot
     direction -0.108514 -0.298139 0.948334   
     length 2.66102  
     axis -90 -7.62852e-016 -20   XYZ
    dof rx rz
    limits (-45.0 90.0)
           (-20.0 70.0)
  end
  begin
     id 10 
     name rtoes
     direction -1.53392e-011 -4.22077e-011 1   
     length 1.31983   
     axis -90 -7.62852e-016 -20   XYZ
    dof rx
    limits (-90.0 20.0)
  end
  begin
     id 11 
     name lowerback
     direction 0.0113257 0.999866 0.0118602   
     length 2.58694   
     axis 0 0 0   XYZ
    dof rx ry rz
    limits (-20.0 45.0)
           (-30.0 30.0)
           (-30.0 30.0)
  end
  begin
     id 12 
     name upperback
     direction -0.0164747 0.995193 -0.0965375   
     length 2.52368   
     axis 0 0 0   XYZ
    dof rx ry rz
    limits (-20.0 45.0)
           (-30.0 30.0)
           (-30.0 30.0)
  end
  begin
     id 13 
     name thorax
     direction -0.0194301 0.99433 -0.104552   
     length 2.56099   
     axis 0 0 0   XYZ
    dof rx ry rz
    limits (-20.0 45.0)
           (-30.0 30.0)
           (-30.0 30.0)
  end
  begin
     id 14 
     name lowerneck
     direction 0.0148543 0.995587 -0.092657   
     length 1.71582   
     axis 0 0 0   XYZ
    dof rx ry rz
    limits (-20.0 45.0)
           (-30.0 30.0)
           (-30.0 30.0)
  end
  begin
     id 15 
     name upperneck
     direction -0.0135467 0.993656 -0.111639   
     length 1.68937   
     axis 0 0 0   XYZ
    dof rx ry rz
    limits (-20.0 45.0)
           (-30.0 30.0)
           (-30.0 30.0)
  end
  begin
     id 16
     name head
     direction -0.00615349 0.999547 -0.029448  
     length 1.7462  
     axis 0 0 0   XYZ
    dof rx ry rz
    limits (-20.0 45.0)
           (-30.0 30.0)
           (-30.0 30.0)
  end
  begin
     id 17 
     name lclavicle
     direction 0.988267 0.149885 0.0293713  
     length 4.47222  
     axis 0 0 0   XYZ
    dof ry rz
    limits (-20.0 10.0)
           (0.0 20.0)
  end
  begin
     id 18 
     name lhumerus
     direction 1 -4.48986e-011 -1.14833e-027   
     length 5.37148   
     axis 180 -30 -90   XYZ
    dof rx ry rz
    limits (-60.0 90.0)
           (-90.0 90.0)
           (-90.0 90.0)
  end
  begin
     id 19
     name lradius
     direction 0.999998 0.00170963 -0.000987055   
     length 3.94212   
     axis 180 -30 -90   XYZ
    dof rx
    limits (-10.0 170.0)
  end
  begin
     id 20
     name lwrist
     direction 0.999998 7.53149e-005 -0.00194706   
     length 1.97106   
     axis 4.65056e-015 90 90   XYZ
    dof ry
    limits (-180.0 0.0)
 end
  begin
     id 21 
     name lhand
     direction 1 -4.48973e-011 -1.31746e-026   
     length 1.17917   
     axis 8.4065e-015 90 90   XYZ
    dof rx rz
    limits (-90.0 90.0)
           (-45.0 45.0)
  end
  begin
     id 22 
     name lfingers
     direction 1 -4.49107e-011 -2.63492e-026   
     length 0.950679   
     axis 1.6813e-014 90 90   XYZ
    dof rx
    limits (0.0 90.0)
  end
  begin
     id 23
     name lthumb
     direction 0.707107 -6.35048e-011 0.707107   
     length 1.36499   
     axis -90 45 2.85299e-015   XYZ
    dof rx rz
    limits (-45.0 45.0)
           (-45.0 45.0)
  end
  begin
     id 24 
     name rclavicle
     direction -0.996699 0.0642895 -0.0495725   
     length 4.62611  
     axis 0 0 0   XYZ 
    dof ry rz
    limits (-10.0 20.0)
           (-20.0 0.0)
  end
  begin
     id 25 
     name rhumerus
     direction -1 -4.48919e-011 -2.41059e-027  
     length 5.4981   
     axis 180 30 90   XYZ
    dof rx ry rz
    limits (-90.0 60.0)
           (-90.0 90.0)
           (-90.0 90.0)
  end
  begin
     id 26 
     name rradius
     direction -0.999999 0.00118101 -0.000681858   
     length 3.48381   
     axis 180 30 90   XYZ
    dof rx
    limits (-10.0 170.0)
  end
  begin
     id 27 
     name rwrist
     direction -0.999999 0.000321823 -0.00132288   
     length 1.7419   
     axis 4.65056e-015 -90 -90   XYZ
    dof ry
    limits (-180.0 0.0)
  end
  begin
     id 28
     name rhand
     direction -1 -4.49022e-011 -1.31746e-026   
     length 1.34932   
     axis 8.4065e-015 -90 -90   XYZ
    dof rx rz
    limits (-90.0 90.0)
           (-45.0 45.0)
  end
  begin
     id 29
     name rfingers
     direction -1 -4.49178e-011 -2.63492e-026   
     length 1.08785   
     axis 1.6813e-014 -90 -90   XYZ
    dof rx
    limits (0.0 90.0)
  end
  begin
     id 30
     name rthumb
     direction -0.707107 -6.34713e-011 0.707107   
     length 1.56195   
     axis -90 -45 -2.85299e-015   XYZ
    dof rx rz
    limits (-45.0 45.0)
           (-45.0 45.0)
  end
:hierarchy
  begin
    root lhipjoint rhipjoint lowerback
    lhipjoint lfemur
    lfemur ltibia
    ltibia lfoot
    lfoot ltoes
    rhipjoint rfemur
    rfemur rtibia
    rtibia rfoot
    rfoot rtoes
    lowerback upperback
    upperback thorax
    thorax lowerneck lclavicle rclavicle
    lowerneck upperneck
    upperneck head
    lclavicle lhumerus
    lhumerus lradius
    lradius lwrist
    lwrist lhand lthumb
    lhand lfingers
    rclavicle rhumerus
    rhumerus rradius
    rradius rwrist
    rwrist rhand rthumb
    rhand rfingers
  end

#!OML:ASF X:\für Bonn\!DataBase\2005_08_10_Bjorn_Final\c3d\bjorn.ASF
:FULLY-SPECIFIED
:DEGREES
27
root 0.333485 19.2675 6.0456 -2342.34 -0.238006 174.457
lowerback 15.3587 3.9173 -2.48486
upperback 18.1127 0.442975 -1.87036
thorax 11.2624 -1.79722 -1.07351
lowerneck -0.00966501 -2.71056 -1.55568
upperneck 21.6135 -5.84794 1.16276
head 6.65329 -3.46197 0.2325
rclavicle 1.49089e-014 2.60408e-014
rhumerus -377.164 -20.9606 272.654
rradius 37.9724
rwrist -13.8004
rhand -19.4236 5.68509
rfingers 7.12502
rthumb 6.89621 -24.1826
lclavicle 1.49089e-014 2.60408e-014
lhumerus -8.75286 -3.72441 78.6301
lradius 36.4053
lwrist -9.1692
lhand -25.9461 -11.4242
lfingers 7.12502
lthumb 0.597782 738.555
rfemur -14.9143 -9.84632 7.73903
rtibia 33.9965
rfoot -13.8257 12.196
rtoes 4.63496
lfemur 176.577 170.873 160.919
ltibia 19.4389
lfoot -8.01279 -1.21012
ltoes -10.8414
28
root 0.331397 19.2591 6.08796 -2342.41 -0.203397 174.317
lowerback 16.0599 3.86406 -2.13687
upperback 18.2891 0.223639 -1.61651
thorax 11.1052 -1.9351 -0.98154
lowerneck 0.0740191 -2.86626 -1.7867
upperneck 21.0999 -5.98791 1.30951
head 6.48658 -3.51573 0.321822
rclavicle 1.38078e-014 -2.84239e-015
rhumerus -376.748 -20.7825 272.868
rradius 37.8271
rwrist -13.6658
rhand -19.6682 5.9073
rfingers 7.12502
rthumb 6.66011 -23.968
lclavicle 1.38078e-014 -2.84239e-015
lhumerus -8.5792 -4.09003 79.016
lradius 36.6635
lwrist -9.57687
lhand -25.7708 -11.3401
lfingers 7.12502
lthumb 0.767114 738.638
rfemur -14.8802 -9.73782 7.62871
rtibia 33.6912
rfoot -13.0939 11.4895
rtoes 5.32085
lfemur 176.339 170.691 160.751
ltibia 19.7559
lfoot -7.93874 -1.26543
ltoes -11.1007
29
root 0.329753 19.25 6.13082 -2342.48 -0.183675 174.189
lowerback 16.7499 3.81176 -1.76112
upperback 18.4783 0.0050156 -1.35159
thorax 10.976 -2.0738 -0.891231
lowerneck 0.1709 -3.04273 -1.8644
upperneck 20.515 -6.12418 1.29895
head 6.28693 -3.56516 0.337771
rclavicle 1.91827e-014 1.74931e-014
rhumerus -376.343 -20.6017 273.08
rradius 37.7263
rwrist -13.5466
rhand -19.9491 6.10833
rfingers 7.12502
rthumb 6.38891 -23.7753
lclavicle 1.91827e-014 1.74931e-014
lhumerus -8.35456 -4.50729 79.4003
lradius 36.8705
lwrist -9.71471
lhand -25.6464 -11.5352
lfingers 7.12502
lthumb 0.887287 738.443
rfemur -14.8695 -9.64713 7.52567
rtibia 33.4212
rfoot -12.3569 10.8504
rtoes 5.92973
lfemur 176.072 170.538 160.59
ltibia 20.0922
lfoot -7.86321 -1.28884
ltoes -11.2461
30
root 0.329515 19.2404 6.17466 -2342.51 -0.193637 174.031
lowerback 17.4314 3.76213 -1.35698
upperback 18.6714 -0.202932 -1.12367
thorax 10.862 -2.20219 -0.855634
lowerneck 0.255849 -3.22946 -1.83182
upperneck 19.9388 -6.27766 1.26157
head 6.08959 -3.61674 0.326051
rclavicle 9.74045e-015 -1.2921e-014
rhumerus -375.981 -20.4668 273.264
rradius 37.6848
rwrist -13.5088
rhand -20.1926 6.33572
rfingers 7.12502
rthumb 6.1539 -23.5549
lclavicle 9.74045e-015 -1.2921e-014
lhumerus -8.11537 -5.03755 79.6982
lradius 37.116
lwrist -9.87956
lhand -25.5293 -11.6882
lfingers 7.12502
lthumb 1.00039 738.289
rfemur -14.8951 -9.55448 7.39336
rtibia 33.1945
rfoot -11.7301 10.2735
rtoes 5.99883
lfemur 175.757 170.402 160.393
ltibia 20.4553
lfoot -7.77608 -1.34193
ltoes -11.4557
31
root 0.329344 19.231 6.2191 -2342.52 -0.224047 173.881
lowerback 18.0826 3.6839 -0.924623
upperback 18.8739 -0.447049 -0.897548
thorax 10.7818 -2.34772 -0.833419
lowerneck 0.361463 -3.40652 -1.83274
upperneck 19.2989 -6.40503 1.20452
head 5.86946 -3.65844 0.317329
rclavicle 5.56597e-015 -6.75868e-015
rhumerus -375.613 -20.2778 273.431
rradius 37.6947
rwrist -13.4504
rhand -20.4329 6.5201
rfingers 7.12502
rthumb 5.92187 -23.3771
lclavicle 5.56597e-015 -6.75868e-015
lhumerus -7.86129 -5.54161 79.9626
lradius 37.3702
lwrist -10.0246
lhand -25.4249 -11.919
lfingers 7.12502
lthumb 1.10116 738.058
rfemur -14.96 -9.47633 7.27039
rtibia 33.0123
rfoot -11.2692 9.80275
rtoes 5.56103
lfemur 175.387 170.247 160.201
ltibia 20.8551
lfoot -7.69237 -1.41688
ltoes -11.7086
32
root 0.330366 19.2213 6.26327 -2342.49 -0.267914 173.732
lowerback 18.7052 3.60083 -0.45267
upperback 19.0705 -0.683182 -0.687231
thorax 10.7143 -2.48175 -0.84821
lowerneck 0.477146 -3.5896 -1.81944
upperneck 18.6578 -6.5482 1.16642
head 5.64892 -3.7063 0.312165
rclavicle -6.75868e-015 1.59028e-015
rhumerus -375.245 -20.1905 273.588
rradius 37.6854
rwrist -13.2957
rhand -20.6433 6.73529
rfingers 7.12502
rthumb 5.71875 -23.1675
lclavicle -6.75868e-015 1.59028e-015
lhumerus -7.61514 -6.09749 80.1778
lradius 37.6454
lwrist -10.2124
lhand -25.3111 -12.2565
lfingers 7.12502
lthumb 1.21108 737.72
rfemur -15.0915 -9.46941 7.15498
rtibia 32.884
rfoot -10.9468 9.45321
rtoes 4.49461
lfemur 174.957 170.124 160
ltibia 21.2958
lfoot -7.6137 -1.48885
ltoes -11.8457
33
root 0.331896 19.2116 6.30714 -2342.42 -0.313979 173.563
lowerback 19.259 3.50165 0.0196569
upperback 19.2879 -0.942718 -0.504547
thorax 10.7132 -2.62775 -0.892519
lowerneck 0.604295 -3.76016 -1.77632
upperneck 17.974 -6.6744 1.14526
head 5.41354 -3.74251 0.309876
rclavicle 2.22639e-014 1.15295e-014
rhumerus -374.773 -20.0787 273.676
rradius 37.652
rwrist -13.1651
rhand -20.8122 6.93081
rfingers 7.12502
rthumb 5.55566 -22.9764
lclavicle 2.22639e-014 1.15295e-014
lhumerus -7.30936 -6.62113 80.3235
lradius 37.9043
lwrist -10.4296
lhand -25.2011 -12.6272
lfingers 7.12502
lthumb 1.31736 737.348
rfemur -15.2931 -9.51868 7.02296
rtibia 32.8108
rfoot -10.692 9.19846
rtoes 3.32398
lfemur 174.459 170.055 159.766
ltibia 21.7831
lfoot -7.56634 -1.51264
ltoes -11.9174
34
root 0.333076 19.2 6.35095 -2342.33 -0.382534 173.377
lowerback 19.8199 3.38631 0.50016
upperback 19.4832 -1.2101 -0.331299
thorax 10.6835 -2.77286 -0.945817
lowerneck 0.803621 -3.90885 -1.74747
upperneck 17.3265 -6.79392 1.17313
head 5.18054 -3.77836 0.326987
rclavicle -3.57812e-015 -8.74653e-015
rhumerus -374.298 -19.9632 273.769
rradius 37.5773
rwrist -13.0778
rhand -21.0225 7.12973
rfingers 7.12502
rthumb 5.3526 -22.7827
lclavicle -3.57812e-015 -8.74653e-015
lhumerus -7.03406 -7.0411 80.4791
lradius 38.124
lwrist -10.8087
lhand -25.1449 -13.1072
lfingers 7.12502
lthumb 1.37158 736.868
rfemur -15.5421 -9.64657 6.8674
rtibia 32.7959
rfoot -10.4587 9.05605
rtoes 2.38003
lfemur 173.906 170.006 159.5
ltibia 22.3237
lfoot -7.5288 -1.5234
ltoes -12.0872
35
root 0.336258 19.1887 6.39548 -2342.21 -0.482027 173.205
lowerback 20.3991 3.24287 0.979638
upperback 19.6557 -1.5047 -0.153568
thorax 10.6179 -2.93017 -0.984845
lowerneck 1.02507 -4.02098 -1.7614
upperneck 16.8071 -6.89885 1.27433
head 4.98837 -3.81194 0.372464
rclavicle -2.38542e-015 5.56597e-015
rhumerus -373.846 -19.7158 273.874
rradius 37.5385
rwrist -13.1147
rhand -21.2429 7.31454
rfingers 7.12502
rthumb 5.13983 -22.6031
lclavicle -2.38542e-015 5.56597e-015
lhumerus -6.81541 -7.3739 80.6109
lradius 38.3616
lwrist -11.2508
lhand -25.0957 -13.6084
lfingers 7.12502
lthumb 1.41918 736.367
rfemur -15.8402 -9.74099 6.73309
rtibia 32.8338
rfoot -10.3387 8.8852
rtoes 1.44435
lfemur 173.284 169.976 159.253
ltibia 22.931
lfoot -7.49554 -1.56635
ltoes -12.2098
36
root 0.339488 19.1762 6.44094 -2342.07 -0.589067 172.989
lowerback 20.9206 3.10945 1.43081
upperback 19.8719 -1.80647 0.0150683
thorax 10.641 -3.09993 -1.02077
lowerneck 1.24536 -4.14878 -1.79643
upperneck 16.234 -7.02239 1.4255
head 4.7835 -3.85143 0.437037
rclavicle -1.27222e-014 -1.35174e-014
rhumerus -373.262 -19.4001 273.943
rradius 37.4795
rwrist -13.3077
rhand -21.4999 7.47777
rfingers 7.12502
rthumb 4.89166 -22.4458
lclavicle -1.27222e-014 -1.35174e-014
lhumerus -6.50038 -7.63353 80.7111
lradius 38.5896
lwrist -11.7833
lhand -25.0579 -14.096
lfingers 7.12502
lthumb 1.45561 735.879
rfemur -16.1873 -9.80754 6.54851
rtibia 32.926
rfoot -10.2332 8.74638
rtoes 0.709119
lfemur 172.601 170.007 158.941
ltibia 23.5982
lfoot -7.49926 -1.52669
ltoes -12.5186
